<?xml version="1.0" encoding="utf-8"?>
<!-- Generator: Adobe Illustrator 24.3.0, SVG Export Plug-In . SVG Version: 6.00 Build 0)  -->
<svg version="1.1" id="Layer_1" xmlns="http://www.w3.org/2000/svg" xmlns:xlink="http://www.w3.org/1999/xlink" x="0px" y="0px"
	 viewBox="0 0 198 64" style="enable-background:new 0 0 198 64;" xml:space="preserve">
<g id="XMLID_1_">
	<g id="XMLID_12_">
		<path id="XMLID_36_" d="M24.3,24.3c0.4,0.2,0.3,1.4-0.2,1.5h-2.5c0.1,0.6,0.1,1.2,0.1,1.8c0,2.5-1.5,5.6-6,5.6
			c-0.6,0-1.1-0.1-1.6-0.1c-0.5,0.2-1.6,0.9-1.6,2c0,0.8,0.8,1.5,2.5,1.5c1.2,0,2.7-0.1,4.2-0.1c2,0,5,0.3,5,3.9
			c0,3.9-4.2,6.7-8.9,6.7c-4.4,0-5.9-2.4-5.9-4.1c0-0.6,0.2-1,0.4-1.3c0.6-0.6,1.6-1.6,2.4-2.4c0.3-0.3,0.6-0.6,0.3-0.8
			c-1.4-0.3-2.6-1.6-2.6-2.8c0-0.2,0.2-0.3,0.5-0.6c0.6-0.4,1.3-1,1.9-1.6c0.2-0.2,0.3-0.5,0.3-0.7c-1.2-0.6-2.7-2-2.7-4.3
			c0-3.1,2.7-5.4,5.8-5.4c1.4,0,2.6,0.3,3.4,0.7c1.1,0.5,1.4,0.6,2.1,0.6h3.1V24.3z M16.9,38.7c-1.1,0-2.5,0.1-3.1,0.4
			c-0.8,0.5-1.7,1.6-1.7,3c0,1.9,1.5,3.5,4.8,3.5c3.2,0,5.3-1.8,5.3-3.8c0-2.1-1.5-3.1-4.1-3.1C18.1,38.7,16.9,38.7,16.9,38.7z
			 M19.1,28.5c0-2.4-1-4.5-3.2-4.5c-1.7,0-3,1.6-3,4c0,2.5,1.5,4.2,3.2,4.2C18.1,32.2,19.1,30.7,19.1,28.5z"/>
		<path id="XMLID_33_" d="M29,28.4c-0.9,0-1,0.1-1,1c0,3.6,2.1,6.7,5.9,6.7c1.2,0,2.1-0.3,3.3-1.8c0.3-0.1,0.6,0.1,0.6,0.5
			c-1.2,2.4-3.7,3.3-5.6,3.3c-2.3,0-4.1-1-5.1-2.4c-1.1-1.4-1.5-3.1-1.5-4.6c0-4.4,2.9-8.1,7.2-8.1c3.1,0,5.1,2.1,5.1,4.2
			c0,0.5-0.1,0.8-0.2,0.9c-0.1,0.2-0.6,0.2-2.1,0.2L29,28.4L29,28.4z M31.2,27.3c2.7,0,3.4-0.2,3.7-0.3c0.1-0.1,0.2-0.2,0.2-0.7
			c0-1-0.7-2.3-2.8-2.3s-3.9,1.9-4,3.1c0,0.1,0,0.2,0.2,0.2C28.6,27.3,31.2,27.3,31.2,27.3z"/>
		<path id="XMLID_32_" d="M41.9,27.3c0-1.4,0-1.6-1-2.2l-0.3-0.2c-0.2-0.2-0.2-0.5,0.1-0.6c0.8-0.3,2.8-1.2,3.6-1.8
			c0.2,0,0.3,0.1,0.4,0.2c-0.1,0.8-0.1,1.4-0.1,1.7c0,0.2,0.2,0.4,0.4,0.4c1.5-0.9,3.2-1.8,5-1.8c2.9,0,4.2,2,4.2,4.4v6.1
			c0,2.5,0.1,2.9,1.4,3.1l0.8,0.1c0.2,0.2,0.2,0.8-0.1,0.9c-1.1-0.1-2.1-0.1-3.3-0.1c-1.3,0-2.4,0.1-3.3,0.1
			c-0.2-0.1-0.3-0.7-0.1-0.9l0.7-0.1c1.3-0.2,1.4-0.5,1.4-3.1v-5.3c0-2-0.9-3.5-3.3-3.5c-1.4,0-2.5,0.6-3.1,1.2
			c-0.5,0.6-0.5,1.1-0.5,2.1v5.5c0,2.5,0.1,2.9,1.4,3.1l0.6,0.1c0.2,0.2,0.2,0.8-0.1,0.9c-1-0.1-2-0.1-3.2-0.1
			c-1.3,0-2.4,0.1-3.3,0.1c-0.2-0.1-0.3-0.7-0.1-0.9l0.7-0.1c1.3-0.2,1.4-0.5,1.4-3.1v-6.3L41.9,27.3L41.9,27.3z"/>
		<path id="XMLID_29_" d="M61.1,28.4c-0.9,0-1,0.1-1,1c0,3.6,2.1,6.7,5.9,6.7c1.2,0,2.1-0.3,3.3-1.8c0.3-0.1,0.6,0.1,0.6,0.5
			c-1.2,2.4-3.7,3.3-5.6,3.3c-2.3,0-4.1-1-5.1-2.4c-1.1-1.4-1.5-3.1-1.5-4.6c0-4.4,2.9-8.1,7.2-8.1c3.1,0,5.1,2.1,5.1,4.2
			c0,0.5-0.1,0.8-0.2,0.9c-0.1,0.2-0.6,0.2-2.1,0.2L61.1,28.4L61.1,28.4z M63.3,27.3c2.7,0,3.4-0.2,3.7-0.3c0.1-0.1,0.2-0.2,0.2-0.7
			c0-1-0.7-2.3-2.8-2.3s-3.9,1.9-4,3.1c0,0.1,0,0.2,0.2,0.2C60.8,27.3,63.3,27.3,63.3,27.3z"/>
		<path id="XMLID_28_" d="M74.2,27c-0.5-1.3-0.8-2.5-2.1-2.7l-0.7-0.1c-0.2-0.3-0.2-0.8,0.1-0.9c0.9,0.1,2.1,0.1,3.3,0.1
			c1,0,1.7-0.1,2.9-0.1c0.2,0.2,0.3,0.7,0.1,0.9l-0.5,0.1c-1.1,0.2-1.1,0.3-0.8,1.4c0.8,2.5,1.9,5,2.7,6.8c0.3,0.7,0.5,1,0.6,1.1
			c0.2-0.1,0.4-0.6,0.7-1.4l2-5.3c0.5-1.2,0.6-2,0.6-2.2c0-0.3-0.2-0.5-0.6-0.5l-0.8-0.1c-0.2-0.2-0.2-0.7,0.1-0.9
			c1.1,0.1,2,0.1,2.7,0.1c0.9,0,1.5-0.1,2.5-0.1c0.2,0.2,0.3,0.7,0.1,0.9l-0.5,0.1c-1.2,0.2-1.6,1.1-2.6,3.1c-0.5,1-2.7,6.1-3.3,7.6
			c-0.3,0.9-0.7,1.7-1.2,2.9C79.2,38,79,38,78.9,38c-0.2,0-0.3-0.1-0.5-0.2c-0.3-1-0.8-2.4-1.4-3.7L74.2,27z"/>
		<path id="XMLID_25_" d="M90.9,27.3c0-1.4,0-1.6-1-2.2l-0.3-0.2c-0.2-0.2-0.2-0.5,0.1-0.6c0.8-0.3,2.8-1.2,3.7-1.8
			c0.2,0,0.3,0.1,0.3,0.2c-0.1,1.2-0.2,2.9-0.2,4.4v6.4c0,2.5,0.1,2.9,1.4,3.1l0.7,0.1c0.2,0.2,0.2,0.8-0.1,0.9
			c-1.1-0.1-2.1-0.1-3.3-0.1c-1.3,0-2.4,0.1-3.3,0.1c-0.2-0.1-0.3-0.7-0.1-0.9l0.7-0.1c1.3-0.2,1.4-0.5,1.4-3.1L90.9,27.3L90.9,27.3
			z M93.8,17.2c0,1.3-0.9,1.9-1.9,1.9c-1.1,0-1.8-0.8-1.8-1.8c0-1.2,0.8-1.9,1.9-1.9S93.8,16.2,93.8,17.2z"/>
		<path id="XMLID_22_" d="M101.1,28.4c-0.9,0-1,0.1-1,1c0,3.6,2.1,6.7,5.9,6.7c1.2,0,2.1-0.3,3.3-1.8c0.3-0.1,0.6,0.1,0.6,0.5
			c-1.2,2.4-3.7,3.3-5.6,3.3c-2.3,0-4.1-1-5.1-2.4c-1.1-1.4-1.5-3.1-1.5-4.6c0-4.4,2.9-8.1,7.2-8.1c3.1,0,5.1,2.1,5.1,4.2
			c0,0.5-0.1,0.8-0.2,0.9c-0.1,0.2-0.6,0.2-2.1,0.2L101.1,28.4L101.1,28.4z M103.4,27.3c2.7,0,3.4-0.2,3.7-0.3
			c0.1-0.1,0.2-0.2,0.2-0.7c0-1-0.7-2.3-2.8-2.3c-2.1,0-3.9,1.9-4,3.1c0,0.1,0,0.2,0.2,0.2C100.8,27.3,103.4,27.3,103.4,27.3z"/>
		<path id="XMLID_21_" d="M114.3,27c-0.5-1.3-0.8-2.5-2.1-2.7l-0.7-0.1c-0.2-0.3-0.2-0.8,0.1-0.9c0.9,0.1,2.1,0.1,3.3,0.1
			c1,0,1.7-0.1,2.9-0.1c0.2,0.2,0.3,0.7,0.1,0.9l-0.5,0.1c-1.1,0.2-1.1,0.3-0.8,1.4c0.8,2.5,1.9,5,2.7,6.8c0.3,0.7,0.5,1,0.6,1.1
			c0.2-0.1,0.4-0.6,0.7-1.4l2-5.3c0.5-1.2,0.6-2,0.6-2.2c0-0.3-0.2-0.5-0.6-0.5l-0.8-0.1c-0.2-0.2-0.2-0.7,0.1-0.9
			c1.1,0.1,2,0.1,2.7,0.1c0.9,0,1.5-0.1,2.5-0.1c0.2,0.2,0.3,0.7,0.1,0.9l-0.5,0.1c-1.2,0.2-1.6,1.1-2.6,3.1c-0.5,1-2.7,6.1-3.3,7.6
			c-0.3,0.9-0.7,1.7-1.2,2.9c-0.1,0.1-0.2,0.2-0.3,0.2c-0.2,0-0.3-0.1-0.5-0.2c-0.3-1-0.8-2.4-1.4-3.7L114.3,27z"/>
		<path id="XMLID_18_" d="M131.1,28.4c-0.9,0-1,0.1-1,1c0,3.6,2.1,6.7,5.9,6.7c1.2,0,2.1-0.3,3.3-1.8c0.3-0.1,0.6,0.1,0.6,0.5
			c-1.2,2.4-3.7,3.3-5.6,3.3c-2.3,0-4.1-1-5.1-2.4c-1.1-1.4-1.5-3.1-1.5-4.6c0-4.4,2.9-8.1,7.2-8.1c3.1,0,5.1,2.1,5.1,4.2
			c0,0.5-0.1,0.8-0.2,0.9c-0.1,0.2-0.6,0.2-2.1,0.2L131.1,28.4L131.1,28.4z M133.4,27.3c2.7,0,3.4-0.2,3.7-0.3
			c0.1-0.1,0.2-0.2,0.2-0.7c0-1-0.7-2.3-2.8-2.3s-3.9,1.9-4,3.1c0,0.1,0,0.2,0.2,0.2C130.8,27.3,133.4,27.3,133.4,27.3z"/>
		<path id="XMLID_17_" d="M153.2,33.6c0,2.5,0.1,2.9,1.4,3.1l0.8,0.1c0.2,0.2,0.2,0.8-0.1,0.9c-1.2-0.1-2.2-0.1-3.4-0.1
			c-1.3,0-2.4,0.1-3.4,0.1c-0.2-0.1-0.3-0.7-0.1-0.9l0.8-0.1c1.3-0.2,1.4-0.5,1.4-3.1V17.5c0-2.1-0.1-2.3-1.1-2.9l-0.3-0.2
			c-0.2-0.1-0.2-0.6,0-0.7c0.9-0.3,2.5-0.8,3.8-1.5c0.2,0,0.3,0.1,0.3,0.2c-0.1,1.1-0.1,2.8-0.1,4.4L153.2,33.6L153.2,33.6z"/>
		<path id="XMLID_14_" d="M165.4,30.2c0.5-0.2,0.6-0.5,0.6-1l0.1-1.6c0.1-1.3-0.4-3.1-2.6-3.1c-1,0-2.2,0.5-2.3,1.6
			c-0.1,0.6-0.1,1-0.3,1.2c-0.5,0.5-1.5,0.7-2,0.7c-0.3,0-0.5-0.2-0.5-0.5c0-1.9,4-4.4,6.6-4.4c2.5,0,3.8,1.5,3.7,4.2l-0.2,6.2
			c-0.1,1.6,0.2,3.1,1.6,3.1c0.3,0,0.7-0.1,0.9-0.2c0.2-0.1,0.3-0.2,0.5-0.2s0.2,0.2,0.2,0.5c0,0.2-1.2,1.6-3,1.6
			c-0.8,0-1.7-0.3-2.3-1.1c-0.2-0.2-0.3-0.5-0.6-0.5s-0.7,0.3-1.4,0.7c-0.8,0.5-1.6,0.9-2.5,0.9c-1,0-1.9-0.3-2.5-0.8
			c-0.7-0.6-1.1-1.5-1.1-2.5c0-1.4,0.7-2.2,2.9-3.1L165.4,30.2z M163.2,36.4c0.7,0,1.8-0.5,2.1-0.9c0.5-0.5,0.5-0.9,0.5-1.7l0.1-2.1
			c0-0.4-0.2-0.5-0.3-0.5c-0.2,0-0.8,0.2-1.5,0.3c-2.1,0.7-3.2,1.2-3.2,2.7C160.9,34.9,161.3,36.4,163.2,36.4z"/>
		<path id="XMLID_13_" d="M176.3,32.3c0,2.5,0.6,4.1,3.3,4.1c1,0,2.1-0.4,2.9-1.1c0.5-0.5,0.7-1,0.7-2.1v-5.9c0-2.3-0.2-2.4-1.3-2.8
			l-0.5-0.2c-0.2-0.2-0.2-0.6,0.1-0.8c1.4-0.1,3.4-0.3,4.2-0.6c0.2,0.1,0.3,0.1,0.3,0.2c-0.1,0.7-0.1,1.8-0.1,3.1v6
			c0,2.8,0.1,3.9,1.1,3.9c0.5,0,0.9-0.1,1.4-0.2c0.2,0.2,0.2,0.9-0.1,1c-1.4,0.3-3.4,0.6-4.7,1.3c-0.2,0-0.3-0.1-0.5-0.2v-1.5
			c0-0.3-0.1-0.5-0.3-0.5c-1.1,0.7-2.8,1.9-4.9,1.9c-3.2,0-4.3-1.6-4.3-4.5v-5.9c0-2.3,0-2.5-1.1-3.1l-0.5-0.2
			c-0.2-0.2-0.2-0.7,0.1-0.8c1.6-0.1,3.1-0.3,3.8-0.6c0.2,0.1,0.3,0.1,0.3,0.2c-0.1,0.6-0.1,1.4-0.1,3.1L176.3,32.3L176.3,32.3z"/>
	</g>
	<g id="XMLID_2_">
		<path id="XMLID_11_" d="M78.3,45.1v4.1c0,0.5,0,1-0.2,1.5c-0.2,0.4-0.6,0.9-1.5,0.9c-0.6,0-1-0.2-1.1-0.3l0.5-0.8
			c0.1,0.1,0.3,0.2,0.7,0.2c0.2,0,0.5-0.1,0.6-0.5c0.1-0.2,0.1-0.4,0.1-1V45L78.3,45.1C78.3,45,78.3,45.1,78.3,45.1z"/>
		<path id="XMLID_10_" d="M85.3,46h-2.5v1.6h2.5v0.9h-2.5v2h2.5v0.9h-3.6V45h3.6V46z"/>
		<path id="XMLID_9_" d="M88.4,45.1l1.7,4.3l1.8-4.6l1.7,4.6l1.8-4.3h1.1l-2.9,6.8l-1.7-4.5l-1.7,4.5l-2.7-6.8H88.4z"/>
		<path id="XMLID_8_" d="M102.4,46h-2.5v1.6h2.5v0.9h-2.5v2h2.5v0.9h-3.6V45h3.6V46z"/>
		<path id="XMLID_7_" d="M106.5,45.1v5.5h1.9v0.9h-2.9v-6.4H106.5z"/>
		<path id="XMLID_4_" d="M112.8,45.1c0.8,0,1.3,0.1,1.7,0.4c0.7,0.5,0.7,1.2,0.7,1.5c0,0.9-0.6,1.6-1.4,1.8l2,2.7h-1.2l-1.8-2.6
			h-0.2v2.6h-1v-6.4H112.8z M112.6,48h0.3c0.3,0,1.4-0.1,1.4-1.1c0-0.9-0.8-1-1.4-1h-0.3V48L112.6,48z"/>
		<path id="XMLID_3_" d="M120.4,48.7l-2.1-3.6h1.1l1.5,2.5l1.5-2.5h1.1l-2.1,3.6v2.8h-1V48.7L120.4,48.7z"/>
	</g>
</g>
</svg>
